<svg id="edyjHvIfmOw1" xmlns="http://www.w3.org/2000/svg" xmlns:xlink="http://www.w3.org/1999/xlink" viewBox="0 0 300 300" shape-rendering="geometricPrecision" text-rendering="geometricPrecision"><defs><linearGradient id="edyjHvIfmOw2-fill" x1="0.5" y1="1" x2="0.5" y2="0" spreadMethod="pad" gradientUnits="objectBoundingBox" gradientTransform="translate(0 0)"><stop id="edyjHvIfmOw2-fill-0" offset="0%" stop-color="#e84648"/><stop id="edyjHvIfmOw2-fill-1" offset="100%" stop-color="#f99e4c"/></linearGradient></defs><ellipse rx="150" ry="150" transform="translate(150 150)" fill="url(#edyjHvIfmOw2-fill)" stroke-width="0"/><rect width="70.100248" height="70.100248" rx="0" ry="0" transform="matrix(.672215 0 0 0.672215 102.877562 126.438781)" fill="#582841" stroke="#000" stroke-width="2"/><rect width="70.100248" height="70.100248" rx="0" ry="0" transform="matrix(.672215 0 0 0.672215 102.877562 173.561219)" fill="#582841" stroke="#000" stroke-width="2"/><rect width="70.100248" height="70.100248" rx="0" ry="0" transform="matrix(.672215 0 0 0.672215 102.877562 79.316343)" fill="#582841" stroke="#000" stroke-width="2"/><rect width="70.100248" height="70.100248" rx="0" ry="0" transform="matrix(.672215 0 0 0.672215 150 79.316343)" fill="#582841" stroke="#000" stroke-width="2"/><rect width="70.100248" height="70.100248" rx="0" ry="0" transform="matrix(.672215 0 0 0.672215 150 173.561219)" fill="#582841" stroke="#000" stroke-width="2"/><rect width="70.100248" height="70.100248" rx="0" ry="0" transform="matrix(.672215 0 0 0.672215 197.122438 126.438781)" fill="#582841" stroke="#000" stroke-width="2"/><rect width="70.100248" height="70.100248" rx="0" ry="0" transform="matrix(.672215 0 0 0.672215 55.755124 126.438781)" fill="#582841" stroke="#000" stroke-width="2"/></svg>
